{
  "accessors": [
    {
      "bufferView": 2,
      "componentType": 5126,
      "count": 3528,
      "max": [
        5.179677963256836,
        1.6318100690841675,
        0.8182728886604309
      ],
      "min": [
        -5.179677963256836,
        -1.2494845390319824,
        -16.14237403869629
      ],
      "type": "VEC3"
    },
    {
      "bufferView": 2,
      "byteOffset": 42336,
      "componentType": 5126,
      "count": 3528,
      "max": [
        0.9984121918678284,
        0.9916066527366638,
        0.9910479784011841
      ],
      "min": [
        -0.9984121918678284,
        -0.9961085319519043,
        -0.9999799132347107
      ],
      "type": "VEC3"
    },
    {
      "bufferView": 1,
      "componentType": 5126,
      "count": 3528,
      "max": [
        0.75,
        0.875
      ],
      "min": [
        0.0,
        0.0
      ],
      "type": "VEC2"
    },
    {
      "bufferView": 0,
      "componentType": 5125,
      "count": 5304,
      "type": "SCALAR"
    }
  ],
  "asset": {
    "extras": {
      "author": "Burenop (https://sketchfab.com/Burenop)",
      "license": "CC-BY-4.0 (http://creativecommons.org/licenses/by/4.0/)",
      "source": "https://sketchfab.com/3d-models/male-low-poly-human-body-0ddf37d5ed164f47bae0df21fbc0c474",
      "title": "Male Low Poly Human Body"
    },
    "generator": "Sketchfab-12.66.0",
    "version": "2.0"
  },
  "bufferViews": [
    {
      "buffer": 0,
      "byteLength": 21216,
      "name": "floatBufferViews",
      "target": 34963
    },
    {
      "buffer": 0,
      "byteLength": 28224,
      "byteOffset": 21216,
      "byteStride": 8,
      "name": "floatBufferViews",
      "target": 34962
    },
    {
      "buffer": 0,
      "byteLength": 84672,
      "byteOffset": 49440,
      "byteStride": 12,
      "name": "floatBufferViews",
      "target": 34962
    }
  ],
  "buffers": [
    {
      "byteLength": 134112,
      "uri": "scene.bin"
    }
  ],
  "materials": [
    {
      "doubleSided": true,
      "name": "Scene_-_Root",
      "pbrMetallicRoughness": {
        "metallicFactor": 0.0
      }
    }
  ],
  "meshes": [
    {
      "name": "Cube__0",
      "primitives": [
        {
          "attributes": {
            "NORMAL": 1,
            "POSITION": 0,
            "TEXCOORD_0": 2
          },
          "indices": 3,
          "material": 0,
          "mode": 4
        }
      ]
    }
  ],
  "nodes": [
    {
      "children": [
        1
      ],
      "matrix": [
        0.005767506081610918,
        0.0,
        0.0,
        0.0,
        0.0,
        1.2806436092940117e-18,
        -0.005767506081610918,
        0.0,
        0.0,
        0.005767506081610918,
        1.2806436092940117e-18,
        0.0,
        0.0,
        0.0,
        0.0,
        1.0
      ],
      "name": "Sketchfab_model"
    },
    {
      "children": [
        2
      ],
      "matrix": [
        1.0,
        0.0,
        0.0,
        0.0,
        0.0,
        0.0,
        1.0,
        0.0,
        0.0,
        -1.0,
        0.0,
        0.0,
        0.0,
        0.0,
        0.0,
        1.0
      ],
      "name": "Corpo.fbx"
    },
    {
      "children": [
        3
      ],
      "name": "RootNode"
    },
    {
      "children": [
        4
      ],
      "matrix": [
        19.52075958251953,
        0.0,
        0.0,
        0.0,
        0.0,
        -3.1803354134286854e-06,
        -19.520759582519272,
        0.0,
        0.0,
        19.520759582519272,
        -3.1803354134286854e-06,
        0.0,
        0.12743012607097626,
        156.36524963378906,
        -4.840836048126221,
        1.0
      ],
      "name": "Cube"
    },
    {
      "mesh": 0,
      "name": "Cube__0"
    }
  ],
  "scene": 0,
  "scenes": [
    {
      "name": "Sketchfab_Scene",
      "nodes": [
        0
      ]
    }
  ]
}
