{
  "accessors": [
    {
      "bufferView": 2,
      "componentType": 5126,
      "count": 65532,
      "max": [
        0.04473000019788742,
        0.002256999956443906,
        0.9167659878730774
      ],
      "min": [
        -0.022034000605344772,
        -1.098713994026184,
        0.13886700570583344
      ],
      "type": "VEC3"
    },
    {
      "bufferView": 2,
      "byteOffset": 786384,
      "componentType": 5126,
      "count": 65532,
      "max": [
        0.999998927116394,
        1.0,
        0.9999918937683105
      ],
      "min": [
        -0.9999990463256836,
        -0.9999990463256836,
        -1.0
      ],
      "type": "VEC3"
    },
    {
      "bufferView": 1,
      "componentType": 5126,
      "count": 65532,
      "max": [
        0.9979010224342346,
        0.9925950169563293
      ],
      "min": [
        0.004246999975293875,
        0.0039530000649392605
      ],
      "type": "VEC2"
    },
    {
      "bufferView": 0,
      "componentType": 5125,
      "count": 357885,
      "type": "SCALAR"
    },
    {
      "bufferView": 2,
      "byteOffset": 1572768,
      "componentType": 5126,
      "count": 65532,
      "max": [
        0.05400799959897995,
        -0.9726859927177429,
        0.77121502161026
      ],
      "min": [
        -0.059411000460386276,
        -1.0659409761428833,
        0.1420450061559677
      ],
      "type": "VEC3"
    },
    {
      "bufferView": 2,
      "byteOffset": 2359152,
      "componentType": 5126,
      "count": 65532,
      "max": [
        0.9999417066574097,
        0.999961256980896,
        0.9999018907546997
      ],
      "min": [
        -0.9999376535415649,
        -0.9999586343765259,
        -1.0
      ],
      "type": "VEC3"
    },
    {
      "bufferView": 1,
      "byteOffset": 524256,
      "componentType": 5126,
      "count": 65532,
      "max": [
        0.9999669790267944,
        0.9184340238571167
      ],
      "min": [
        7.200000254670158e-05,
        0.003936000168323517
      ],
      "type": "VEC2"
    },
    {
      "bufferView": 0,
      "byteOffset": 1431540,
      "componentType": 5125,
      "count": 357285,
      "type": "SCALAR"
    },
    {
      "bufferView": 2,
      "byteOffset": 3145536,
      "componentType": 5126,
      "count": 40137,
      "max": [
        0.01728699915111065,
        -0.9967899918556213,
        0.7709100246429443
      ],
      "min": [
        -0.05945499986410141,
        -1.0493069887161255,
        0.1340630054473877
      ],
      "type": "VEC3"
    },
    {
      "bufferView": 2,
      "byteOffset": 3627180,
      "componentType": 5126,
      "count": 40137,
      "max": [
        0.99997878074646,
        0.9999897480010986,
        0.9997039437294006
      ],
      "min": [
        -0.99997878074646,
        -0.9999890327453613,
        -0.9999314546585083
      ],
      "type": "VEC3"
    },
    {
      "bufferView": 1,
      "byteOffset": 1048512,
      "componentType": 5126,
      "count": 40137,
      "max": [
        0.9956259727478027,
        0.917140007019043
      ],
      "min": [
        0.04742800071835518,
        0.0039530000649392605
      ],
      "type": "VEC2"
    },
    {
      "bufferView": 0,
      "byteOffset": 2860680,
      "componentType": 5125,
      "count": 218370,
      "type": "SCALAR"
    },
    {
      "bufferView": 2,
      "byteOffset": 4108824,
      "componentType": 5126,
      "count": 13872,
      "max": [
        0.021856000646948814,
        -0.9911080002784729,
        0.7137920260429382
      ],
      "min": [
        -0.02188500016927719,
        -1.036241054534912,
        0.6273400187492371
      ],
      "type": "VEC3"
    },
    {
      "bufferView": 2,
      "byteOffset": 4275288,
      "componentType": 5126,
      "count": 13872,
      "max": [
        0.9995418190956116,
        0.9989563226699829,
        0.9997190833091736
      ],
      "min": [
        -0.9995418190956116,
        -0.9989563226699829,
        -0.9997190833091736
      ],
      "type": "VEC3"
    },
    {
      "bufferView": 1,
      "byteOffset": 1369608,
      "componentType": 5126,
      "count": 13872,
      "max": [
        1.0,
        1.0
      ],
      "min": [
        0.0,
        0.0
      ],
      "type": "VEC2"
    },
    {
      "bufferView": 0,
      "byteOffset": 3734160,
      "componentType": 5125,
      "count": 76800,
      "type": "SCALAR"
    },
    {
      "bufferView": 2,
      "byteOffset": 4441752,
      "componentType": 5126,
      "count": 65532,
      "max": [
        1.0000619888305664,
        0.9776819944381714,
        0.928026020526886
      ],
      "min": [
        -1.0021179914474487,
        -1.0218700170516968,
        0.13138799369335175
      ],
      "type": "VEC3"
    },
    {
      "bufferView": 2,
      "byteOffset": 5228136,
      "componentType": 5126,
      "count": 65532,
      "max": [
        1.0,
        1.0,
        1.0
      ],
      "min": [
        -1.0,
        -1.0,
        -1.0
      ],
      "type": "VEC3"
    },
    {
      "bufferView": 1,
      "byteOffset": 1480584,
      "componentType": 5126,
      "count": 65532,
      "max": [
        0.999921977519989,
        0.9957860112190247
      ],
      "min": [
        0.007083999924361706,
        0.006577000021934509
      ],
      "type": "VEC2"
    },
    {
      "bufferView": 0,
      "byteOffset": 4041360,
      "componentType": 5125,
      "count": 366429,
      "type": "SCALAR"
    },
    {
      "bufferView": 2,
      "byteOffset": 6014520,
      "componentType": 5126,
      "count": 65532,
      "max": [
        0.9987630248069763,
        0.9765539765357971,
        0.9278910160064697
      ],
      "min": [
        -1.001973032951355,
        -1.020982027053833,
        0.15051400661468506
      ],
      "type": "VEC3"
    },
    {
      "bufferView": 2,
      "byteOffset": 6800904,
      "componentType": 5126,
      "count": 65532,
      "max": [
        0.9996377825737,
        0.9993816614151001,
        0.9999996423721313
      ],
      "min": [
        -0.9995563626289368,
        -0.9999539852142334,
        -1.0
      ],
      "type": "VEC3"
    },
    {
      "bufferView": 1,
      "byteOffset": 2004840,
      "componentType": 5126,
      "count": 65532,
      "max": [
        0.9999009966850281,
        0.9855509996414185
      ],
      "min": [
        0.0021430000197142363,
        0.008228999562561512
      ],
      "type": "VEC2"
    },
    {
      "bufferView": 0,
      "byteOffset": 5507076,
      "componentType": 5125,
      "count": 369579,
      "type": "SCALAR"
    },
    {
      "bufferView": 2,
      "byteOffset": 7587288,
      "componentType": 5126,
      "count": 7883,
      "max": [
        0.8835790157318115,
        0.38653799891471863,
        0.8842059969902039
      ],
      "min": [
        -0.6797699928283691,
        -0.5846819877624512,
        0.16457299888134003
      ],
      "type": "VEC3"
    },
    {
      "bufferView": 2,
      "byteOffset": 7681884,
      "componentType": 5126,
      "count": 7883,
      "max": [
        0.8623995780944824,
        0.9941012859344482,
        -0.054100070148706436
      ],
      "min": [
        -0.9232600927352905,
        -0.923879086971283,
        -0.9999977350234985
      ],
      "type": "VEC3"
    },
    {
      "bufferView": 1,
      "byteOffset": 2529096,
      "componentType": 5126,
      "count": 7883,
      "max": [
        0.984915018081665,
        0.9128689765930176
      ],
      "min": [
        0.18974100053310394,
        0.4667479991912842
      ],
      "type": "VEC2"
    },
    {
      "bufferView": 0,
      "byteOffset": 6985392,
      "componentType": 5125,
      "count": 45048,
      "type": "SCALAR"
    }
  ],
  "asset": {
    "extras": {
      "author": "dupremium3d (https://sketchfab.com/dupremium3d)",
      "license": "CC-BY-4.0 (http://creativecommons.org/licenses/by/4.0/)",
      "source": "https://sketchfab.com/3d-models/mortarboard-graduation-hat-2f959cf4ae3f400189b210fb513c90ee",
      "title": "Mortarboard Graduation Hat"
    },
    "generator": "Sketchfab-12.68.0",
    "version": "2.0"
  },
  "bufferViews": [
    {
      "buffer": 0,
      "byteLength": 7165584,
      "name": "floatBufferViews",
      "target": 34963
    },
    {
      "buffer": 0,
      "byteLength": 2592160,
      "byteOffset": 7165584,
      "byteStride": 8,
      "name": "floatBufferViews",
      "target": 34962
    },
    {
      "buffer": 0,
      "byteLength": 7776480,
      "byteOffset": 9757744,
      "byteStride": 12,
      "name": "floatBufferViews",
      "target": 34962
    }
  ],
  "buffers": [
    {
      "byteLength": 17534224,
      "uri": "scene.bin"
    }
  ],
  "images": [
    {
      "uri": "textures/Material.001_baseColor.png"
    },
    {
      "uri": "textures/Material.003_baseColor.jpeg"
    },
    {
      "uri": "textures/Material.003_metallicRoughness.png"
    }
  ],
  "materials": [
    {
      "doubleSided": true,
      "name": "Material.001",
      "pbrMetallicRoughness": {
        "baseColorTexture": {
          "index": 0
        },
        "metallicFactor": 0.0,
        "roughnessFactor": 0.46988338227872734
      }
    },
    {
      "doubleSided": true,
      "name": "Material.002",
      "pbrMetallicRoughness": {
        "baseColorFactor": [
          1.0,
          0.47230732036261786,
          0.0,
          1.0
        ],
        "roughnessFactor": 0.286909691188005
      }
    },
    {
      "doubleSided": true,
      "name": "Material.003",
      "pbrMetallicRoughness": {
        "baseColorTexture": {
          "index": 1
        },
        "metallicRoughnessTexture": {
          "index": 2
        }
      }
    }
  ],
  "meshes": [
    {
      "name": "Object_0",
      "primitives": [
        {
          "attributes": {
            "NORMAL": 1,
            "POSITION": 0,
            "TEXCOORD_0": 2
          },
          "indices": 3,
          "material": 0,
          "mode": 4
        }
      ]
    },
    {
      "name": "Object_1",
      "primitives": [
        {
          "attributes": {
            "NORMAL": 5,
            "POSITION": 4,
            "TEXCOORD_0": 6
          },
          "indices": 7,
          "material": 0,
          "mode": 4
        }
      ]
    },
    {
      "name": "Object_2",
      "primitives": [
        {
          "attributes": {
            "NORMAL": 9,
            "POSITION": 8,
            "TEXCOORD_0": 10
          },
          "indices": 11,
          "material": 0,
          "mode": 4
        }
      ]
    },
    {
      "name": "Object_3",
      "primitives": [
        {
          "attributes": {
            "NORMAL": 13,
            "POSITION": 12,
            "TEXCOORD_0": 14
          },
          "indices": 15,
          "material": 1,
          "mode": 4
        }
      ]
    },
    {
      "name": "Object_4",
      "primitives": [
        {
          "attributes": {
            "NORMAL": 17,
            "POSITION": 16,
            "TEXCOORD_0": 18
          },
          "indices": 19,
          "material": 2,
          "mode": 4
        }
      ]
    },
    {
      "name": "Object_5",
      "primitives": [
        {
          "attributes": {
            "NORMAL": 21,
            "POSITION": 20,
            "TEXCOORD_0": 22
          },
          "indices": 23,
          "material": 2,
          "mode": 4
        }
      ]
    },
    {
      "name": "Object_6",
      "primitives": [
        {
          "attributes": {
            "NORMAL": 25,
            "POSITION": 24,
            "TEXCOORD_0": 26
          },
          "indices": 27,
          "material": 2,
          "mode": 4
        }
      ]
    }
  ],
  "nodes": [
    {
      "children": [
        1
      ],
      "matrix": [
        1.0,
        0.0,
        0.0,
        0.0,
        0.0,
        2.220446049250313e-16,
        -1.0,
        0.0,
        0.0,
        1.0,
        2.220446049250313e-16,
        0.0,
        0.0,
        0.0,
        0.0,
        1.0
      ],
      "name": "Sketchfab_model"
    },
    {
      "children": [
        2,
        3,
        4,
        5,
        6,
        7,
        8
      ],
      "name": "Grad Hat1.obj.cleaner.materialmerger.gles"
    },
    {
      "mesh": 0,
      "name": "Object_2"
    },
    {
      "mesh": 1,
      "name": "Object_3"
    },
    {
      "mesh": 2,
      "name": "Object_4"
    },
    {
      "mesh": 3,
      "name": "Object_5"
    },
    {
      "mesh": 4,
      "name": "Object_6"
    },
    {
      "mesh": 5,
      "name": "Object_7"
    },
    {
      "mesh": 6,
      "name": "Object_8"
    }
  ],
  "samplers": [
    {
      "magFilter": 9729,
      "minFilter": 9987,
      "wrapS": 10497,
      "wrapT": 10497
    }
  ],
  "scene": 0,
  "scenes": [
    {
      "name": "Sketchfab_Scene",
      "nodes": [
        0
      ]
    }
  ],
  "textures": [
    {
      "sampler": 0,
      "source": 0
    },
    {
      "sampler": 0,
      "source": 1
    },
    {
      "sampler": 0,
      "source": 2
    }
  ]
}
